<svg xmlns="http://www.w3.org/2000/svg" viewBox="0 0 1400 950" role="img" aria-label="Abnormal load transport convoy across Africa">
  <defs>
    <linearGradient id="sky" x1="0" x2="1" y1="0" y2="1">
      <stop offset="0" stop-color="#f7fbff"/>
      <stop offset="1" stop-color="#eaf2fb"/>
    </linearGradient>
    <linearGradient id="blue" x1="0" x2="1">
      <stop offset="0" stop-color="#0a328a"/>
      <stop offset="1" stop-color="#163e9b"/>
    </linearGradient>
    <linearGradient id="green" x1="0" x2="1">
      <stop offset="0" stop-color="#73b839"/>
      <stop offset="1" stop-color="#8ccf47"/>
    </linearGradient>
    <filter id="shadow" x="-20%" y="-20%" width="140%" height="140%">
      <feDropShadow dx="0" dy="28" stdDeviation="26" flood-color="#0a328a" flood-opacity="0.18"/>
    </filter>
  </defs>
  <rect width="1400" height="950" rx="56" fill="url(#sky)"/>
  <circle cx="1160" cy="160" r="180" fill="#73b839" opacity=".13"/>
  <circle cx="200" cy="180" r="240" fill="#0a328a" opacity=".08"/>
  <g opacity=".08" stroke="#0a328a" stroke-width="2">
    <path d="M80 210h1240M80 310h1240M80 410h1240M80 510h1240M80 610h1240M80 710h1240"/>
    <path d="M170 90v760M350 90v760M530 90v760M710 90v760M890 90v760M1070 90v760M1250 90v760"/>
  </g>
  <g transform="translate(865 172)" opacity=".92">
    <path d="M150 18c-43 16-77 44-99 81-31 52-35 123-1 174 19 28 47 48 56 82 6 22 0 46-9 67 30 13 65 13 95-1 34-16 58-48 63-85 4-35-9-70 5-103 15-36 56-54 76-88 20-35 18-80-4-113-39 34-91 46-142 36-23-4-45-14-40-50z" fill="#ffffff" stroke="#0a328a" stroke-width="8" filter="url(#shadow)"/>
    <path d="M156 78c-23 8-42 22-55 43-19 31-21 72-1 103 12 18 29 30 35 51 4 14 0 29-5 43 18 8 39 7 57-1 21-10 35-30 38-53 3-21-6-43 3-63 9-22 34-33 46-54 12-21 11-49-3-70-24 21-56 28-87 22-14-3-27-8-24-21z" fill="#f4f7fb"/>
    <path d="M80 280c52-42 96-60 138-50 37 8 61 35 104 25" fill="none" stroke="#73b839" stroke-width="10" stroke-linecap="round"/>
    <circle cx="210" cy="192" r="18" fill="#73b839"/>
  </g>
  <path d="M94 730c196-70 336-75 508-32 142 35 241 23 367-25 124-47 214-38 330 8" fill="none" stroke="#0a328a" stroke-opacity=".12" stroke-width="110" stroke-linecap="round"/>
  <path d="M94 730c196-70 336-75 508-32 142 35 241 23 367-25 124-47 214-38 330 8" fill="none" stroke="#ffffff" stroke-width="68" stroke-linecap="round"/>
  <path d="M94 730c196-70 336-75 508-32 142 35 241 23 367-25 124-47 214-38 330 8" fill="none" stroke="#24364f" stroke-width="52" stroke-linecap="round"/>
  <path d="M148 712c166-48 292-48 448-9 150 38 270 21 382-22 104-40 190-34 286 6" fill="none" stroke="#ffffff" stroke-width="6" stroke-dasharray="34 24" stroke-linecap="round" opacity=".84"/>
  <g transform="translate(155 474)" filter="url(#shadow)">
    <rect x="535" y="110" width="420" height="108" rx="18" fill="#1f334d"/>
    <rect x="340" y="138" width="290" height="78" rx="20" fill="#263a55"/>
    <rect x="322" y="178" width="270" height="40" rx="8" fill="#0a328a"/>
    <rect x="124" y="82" width="305" height="138" rx="12" fill="#ffffff" stroke="#0a328a" stroke-width="7"/>
    <path d="M138 98h265v46H138z" fill="#f4f7fb"/>
    <path d="M153 160h220" stroke="#73b839" stroke-width="14" stroke-linecap="round"/>
    <path d="M146 204h760" stroke="#102d73" stroke-width="24" stroke-linecap="round"/>
    <path d="M872 107h118c42 0 84 37 101 82l9 24H872z" fill="url(#blue)"/>
    <path d="M912 130h65c26 0 47 20 58 48h-123z" fill="#ffffff" opacity=".86"/>
    <path d="M868 211h260v44H848z" fill="#102d73"/>
    <rect x="738" y="185" width="150" height="30" rx="8" fill="url(#green)"/>
    <rect x="64" y="188" width="90" height="40" rx="10" fill="url(#green)"/>
    <rect x="26" y="178" width="86" height="52" rx="16" fill="#ffffff" stroke="#0a328a" stroke-width="6"/>
    <rect x="40" y="193" width="40" height="18" rx="4" fill="#0a328a" opacity=".78"/>
    <circle cx="176" cy="246" r="36" fill="#0e1726"/>
    <circle cx="176" cy="246" r="17" fill="#607089"/>
    <circle cx="393" cy="246" r="36" fill="#0e1726"/>
    <circle cx="393" cy="246" r="17" fill="#607089"/>
    <circle cx="684" cy="246" r="36" fill="#0e1726"/>
    <circle cx="684" cy="246" r="17" fill="#607089"/>
    <circle cx="924" cy="246" r="36" fill="#0e1726"/>
    <circle cx="924" cy="246" r="17" fill="#607089"/>
    <circle cx="1030" cy="246" r="36" fill="#0e1726"/>
    <circle cx="1030" cy="246" r="17" fill="#607089"/>
  </g>
  <g transform="translate(118 132)">
    <rect width="344" height="118" rx="24" fill="#ffffff" stroke="#dbe4ef" stroke-width="2" filter="url(#shadow)"/>
    <text x="28" y="48" fill="#73b839" font-family="Inter, Arial, sans-serif" font-weight="900" font-size="18" letter-spacing="3">ABNORMAL LOADS</text>
    <text x="28" y="86" fill="#0a328a" font-family="Inter, Arial, sans-serif" font-weight="900" font-size="28">Across Africa</text>
  </g>
</svg>